<svg width="27" height="36" viewBox="0 0 27 36" fill="none" xmlns="http://www.w3.org/2000/svg">
<path d="M10.4 20.8C12.5333 19.0667 13.9833 17.85 14.75 17.15C15.5167 16.4167 16.15 15.65 16.65 14.85C17.1833 14.0167 17.45 13.1833 17.45 12.35C17.4833 11.35 17.1667 10.5 16.5 9.8C15.8667 9.06667 14.8333 8.7 13.4 8.7C11.8667 8.73333 10.75 9.1 10.05 9.8C9.38333 10.5 9 11.3333 8.9 12.3H0.5C0.566667 10.2667 0.966667 8.48333 1.7 6.95C2.43333 5.41667 3.43333 4.15 4.7 3.15C5.96667 2.11667 7.38333 1.36667 8.95 0.899999C10.55 0.399999 12.25 0.15 14.05 0.15C15.65 0.15 17.1833 0.383333 18.65 0.85C20.15 1.31667 21.4667 2.03333 22.6 3C23.7333 3.96666 24.6333 5.15 25.3 6.55C26 7.95 26.35 9.56666 26.35 11.4C26.35 13.1667 26 14.85 25.3 16.45C24.6 18.0167 23.65 19.45 22.45 20.75C21.2833 22.0167 19.9833 23.2333 18.55 24.4C17.15 25.5333 15.75 26.6167 14.35 27.65H26V36H0.75V28.6L10.4 20.8Z" fill="#8442EE"/>
</svg>
