<svg width="30" height="37" viewBox="0 0 30 37" fill="none" xmlns="http://www.w3.org/2000/svg">
<path d="M1.6 11.7C1.8 9.7 2.3 7.98333 3.1 6.55C3.93333 5.08333 4.96667 3.88333 6.2 2.95C7.43333 1.98333 8.83333 1.28333 10.4 0.85C12 0.383333 13.6667 0.15 15.4 0.15C16.6333 0.15 17.8167 0.249999 18.95 0.449999C20.0833 0.616665 21.1667 0.933332 22.2 1.4C23.8667 2.13333 25.2333 3.21667 26.3 4.65C27.4 6.05 27.95 7.85 27.95 10.05C27.95 11.45 27.6 12.7667 26.9 14C26.2 15.2 25.35 16.1167 24.35 16.75C25.15 17.0833 25.8667 17.55 26.5 18.15C27.1333 18.75 27.65 19.4167 28.05 20.15C28.4833 20.8833 28.7833 21.7 28.95 22.6C29.15 23.5 29.25 24.4 29.25 25.3C29.15 27.7 28.5167 29.7 27.35 31.3C26.2167 32.8667 24.7667 34.0667 23 34.9C21.8 35.4667 20.55 35.85 19.25 36.05C17.95 36.25 16.6 36.35 15.2 36.35C13.2667 36.3167 11.4833 36.0667 9.85 35.6C8.21667 35.1 6.75 34.35 5.45 33.35C4.18333 32.3167 3.11667 31.0333 2.25 29.5C1.38333 27.9333 0.85 26.1 0.65 24H9.45C9.65 25.2667 10.2833 26.2333 11.35 26.9C12.45 27.5667 13.8 27.9 15.4 27.9C16.9333 27.9 18.1 27.6333 18.9 27.1C19.7333 26.5667 20.15 25.7333 20.15 24.6C20.15 23.8333 19.85 23.1833 19.25 22.65C18.6833 22.0833 17.8 21.8 16.6 21.8H12V14.25H15.25C16.5833 14.25 17.5167 13.95 18.05 13.35C18.6167 12.75 18.9 12.0833 18.9 11.35C18.9 10.5167 18.5833 9.83333 17.95 9.3C17.35 8.76667 16.3833 8.5 15.05 8.5C13.65 8.5 12.5333 8.81667 11.7 9.45C10.8667 10.0833 10.4 10.8333 10.3 11.7H1.6Z" fill="#8442EE"/>
</svg>
