<svg width="27" height="37" viewBox="0 0 27 37" fill="none" xmlns="http://www.w3.org/2000/svg">
<path d="M1.05 21.45V0.6H25.75V8.85H9.65V13.4C10.75 12.7333 11.9333 12.3167 13.2 12.15C14.5 11.95 15.5667 11.8667 16.4 11.9C18.4 12 20.0667 12.3833 21.4 13.05C22.7667 13.6833 23.8833 14.5833 24.75 15.75C26.25 17.7167 27 20.3167 27 23.55C27 25.6167 26.65 27.45 25.95 29.05C25.25 30.65 24.2833 32 23.05 33.1C21.85 34.1667 20.4333 34.9833 18.8 35.55C17.1667 36.0833 15.4167 36.35 13.55 36.35C11.7167 36.35 10.0167 36.1167 8.45 35.65C6.91667 35.1833 5.56667 34.4667 4.4 33.5C3.23333 32.5 2.28333 31.25 1.55 29.75C0.816667 28.2167 0.333333 26.4167 0.1 24.35H8.9C8.96667 24.7167 9.1 25.1167 9.3 25.55C9.5 25.95 9.78333 26.3333 10.15 26.7C10.55 27.0333 11.0167 27.3167 11.55 27.55C12.0833 27.7833 12.7 27.9 13.4 27.9C14.2333 27.9 14.9333 27.8 15.5 27.6C16.1 27.3667 16.5667 27.0667 16.9 26.7C17.2333 26.3 17.4667 25.8667 17.6 25.4C17.7667 24.9 17.85 24.3833 17.85 23.85C17.85 22.8167 17.4667 21.8833 16.7 21.05C15.9667 20.1833 14.8667 19.75 13.4 19.75C12.3667 19.75 11.4333 19.9 10.6 20.2C9.8 20.5 9 20.9167 8.2 21.45H1.05Z" fill="#8442EE"/>
</svg>
