<svg width="29" height="37" viewBox="0 0 29 37" fill="none" xmlns="http://www.w3.org/2000/svg">
<path d="M20.15 11.1C19.8833 10.3 19.35 9.65 18.55 9.15C17.7833 8.61667 16.7667 8.35 15.5 8.35C14.4 8.35 13.4333 8.6 12.6 9.1C11.7667 9.56666 11.0833 10.2 10.55 11C10.0167 11.7667 9.61667 12.6333 9.35 13.6C9.08333 14.5333 8.95 15.4667 8.95 16.4C9.58333 15.5667 10.2833 14.9 11.05 14.4C11.85 13.9 12.6167 13.5167 13.35 13.25C14.1167 12.9833 14.8333 12.8 15.5 12.7C16.2 12.6 16.7833 12.55 17.25 12.55C18.95 12.55 20.4333 12.7833 21.7 13.25C23 13.6833 24.1333 14.35 25.1 15.25C26.1667 16.2167 26.9833 17.3833 27.55 18.75C28.1167 20.1167 28.4333 21.8333 28.5 23.9C28.5 25.9 28.15 27.7 27.45 29.3C26.75 30.8667 25.8167 32.1667 24.65 33.2C23.45 34.2667 22.0667 35.0667 20.5 35.6C18.9333 36.1333 17.2667 36.4 15.5 36.4C13.0667 36.4 10.9167 35.95 9.05 35.05C7.21667 34.15 5.71667 32.95 4.55 31.45C3.28333 29.75 2.36667 27.8 1.8 25.6C1.23333 23.4 0.933333 21.1 0.9 18.7C0.9 16.2667 1.2 13.9333 1.8 11.7C2.4 9.43333 3.31667 7.45 4.55 5.75C5.81667 4.05 7.4 2.7 9.3 1.7C11.2 0.666666 13.45 0.15 16.05 0.15C17.6833 0.15 19.2167 0.366665 20.65 0.799997C22.0833 1.23333 23.3333 1.9 24.4 2.8C25.5 3.7 26.4 4.83333 27.1 6.2C27.8 7.56667 28.2333 9.2 28.4 11.1H20.15ZM19.5 24.1C19.5 23.6 19.4167 23.1167 19.25 22.65C19.0833 22.15 18.8167 21.7167 18.45 21.35C18.1167 20.95 17.6667 20.65 17.1 20.45C16.5333 20.2167 15.8667 20.1 15.1 20.1C14.4667 20.1 13.8833 20.2167 13.35 20.45C12.85 20.6833 12.4167 20.9833 12.05 21.35C11.6833 21.7167 11.4 22.1333 11.2 22.6C11 23.0333 10.9 23.5 10.9 24C10.9 24.5 10.9833 25 11.15 25.5C11.35 26 11.6333 26.45 12 26.85C12.3667 27.25 12.8167 27.5667 13.35 27.8C13.9167 28.0333 14.5833 28.15 15.35 28.15C16.8167 28.1167 17.8667 27.6833 18.5 26.85C19.1667 26.0167 19.5 25.1 19.5 24.1Z" fill="#8442EE"/>
</svg>
